<?xml version="1.0" standalone="no"?><!DOCTYPE svg PUBLIC "-//W3C//DTD SVG 1.1//EN" "http://www.w3.org/Graphics/SVG/1.1/DTD/svg11.dtd"><svg t="1481103752211" class="icon" style="" viewBox="0 0 1024 1024" version="1.1" xmlns="http://www.w3.org/2000/svg" p-id="5698" xmlns:xlink="http://www.w3.org/1999/xlink" width="32" height="32"><defs><style type="text/css"></style></defs><path d="M889.5516 520.339732c-15.011518-104.365794-72.376963-194.97103-154.16591-253.885282-1.965794-1.965794-4.289005-3.872019-6.731355-5.599535C575.679814 155.41687 364.565445 175.730076 234.882606 316.194997s-133.495288 351.817568-16.441187 496.154508c17.811286 22.040721 51.051076 23.232112 70.768586 2.859337 16.619895-17.156021 18.049564-44.141012 2.918906-62.607563-49.919255-61.594881-70.411169-139.571379-60.939616-214.807679 0.357417-1.429668 0.655265-2.918906 0.833973-4.467714 20.015358-137.605585 138.499127-243.281908 281.704247-243.281908 143.264689 0 261.867597 105.914602 281.704247 243.639325 3.395462 23.41082 23.351251 40.983828 46.94078 40.983828C871.502036 574.726702 893.602327 548.99267 889.5516 520.339732z" p-id="5699"></path></svg>