<?xml version="1.0" standalone="no"?><!DOCTYPE svg PUBLIC "-//W3C//DTD SVG 1.1//EN" "http://www.w3.org/Graphics/SVG/1.1/DTD/svg11.dtd"><svg t="1481103220532" class="icon" style="" viewBox="0 0 1024 1024" version="1.1" xmlns="http://www.w3.org/2000/svg" p-id="4711" xmlns:xlink="http://www.w3.org/1999/xlink" width="32" height="32"><defs><style type="text/css"></style></defs><path d="M874.799787 743.942827c-1.539413-0.6144-8.321707 5.492053-8.30464 8.502613 0.095573 17.408 1.501867 34.802347 2.464427 52.20352 4.440747 0.13312 8.884907 0.27648 13.32224 0.4096 1.242453-17.175893 3.106133-34.351787 3.201707-51.534507C885.504 750.155093 879.127893 745.659733 874.799787 743.942827z" p-id="4712" fill="#aaa"></path><path d="M979.6608 484.0448c-0.354987-13.083307-9.601707-33.92512-19.408213-37.198507-25.245013-8.42752-53.090987-9.17504-79.94368-12.680533-19.408213-2.536107-25.954987 7.437653-25.770667 25.71264 0.187733 18.274987 0.49152 45.253973 0.49152 64.443733 0.382293 0.365227 0.791893 0.703147 1.184427 1.06496l8.492373 0c25.453227 0 46.09024 23.237973 46.09024 51.89632l0 3.290453c0 28.658347-20.637013 51.892907-46.09024 51.892907L515.037867 632.466773l-6.07232 0L159.290027 632.466773c-25.453227 0-46.086827-23.23456-46.086827-51.892907l0-3.290453c0-28.658347 20.637013-51.89632 46.086827-51.89632l8.495787 0c0.38912-0.3584 0.79872-0.69632 1.181013-1.06496 0-19.18976 0.303787-46.17216 0.49152-64.443733s-6.362453-28.248747-25.767253-25.71264c-26.852693 3.505493-54.695253 4.253013-79.947093 12.680533-9.806507 3.273387-19.049813 24.111787-19.4048 37.198507-1.901227 69.993813-1.78176 140.090027-0.08192 210.09408 0.28672 11.854507 11.874987 23.33696 17.8688 35.181227 4.406613 8.717653 10.58816 17.421653 11.799893 26.682027 3.21536 24.733013 4.181333 49.75616 6.0416 74.67008 4.686507 0.180907 9.373013 0.354987 14.066347 0.53248-0.269653-14.841173 1.641813-29.033813 2.6112-43.646293 3.754667-57.00608 6.222507-56.480427 64.36864-56.415573 115.985067 0.116053 231.96672 0.146773 347.9552 0.170667l0 0c1.010347 0 2.024107 0 3.037867 0s2.02752 0 3.037867 0l0 0c115.985067-0.023893 231.970133-0.054613 347.9552-0.170667 58.14272-0.064853 60.613973-0.590507 64.365227 56.415573 0.965973 14.61248 2.880853 28.80512 2.6112 43.646293 4.693333-0.180907 9.37984-0.354987 14.066347-0.53248 1.860267-24.91392 2.822827-49.937067 6.0416-74.67008 1.20832-9.260373 7.39328-17.967787 11.799893-26.682027 5.9904-11.844267 17.578667-23.32672 17.865387-35.181227C981.44256 624.134827 981.558613 554.0352 979.6608 484.0448z" p-id="4713" fill="#aaa"></path><path d="M149.1968 743.942827c-4.324693 1.716907-10.7008 6.212267-10.683733 9.58464 0.095573 17.179307 1.959253 34.3552 3.201707 51.534507 4.437333-0.13312 8.884907-0.27648 13.32224-0.4096 0.96256-17.401173 2.368853-34.79552 2.464427-52.20352C157.518507 749.438293 150.739627 743.328427 149.1968 743.942827z" p-id="4714" fill="#aaa"></path><path d="M214.500693 525.298347c98.1504-0.662187 196.304213-0.392533 294.464853-0.303787l0 0.003413c1.010347 0 2.024107 0 3.037867-0.003413 1.01376 0.003413 2.02752 0.003413 3.037867 0.003413l0-0.003413c98.16064-0.088747 196.31104-0.3584 294.464853 0.303787 26.313387 0.180907 36.389547-10.15808 34.73408-36.1984-3.037867-47.872-4.983467-95.832747-6.536533-143.786667-0.73728-22.698667-10.513067-32.467627-33.727147-32.426667-97.32096 0.170667-194.645333 0.232107-291.969707 0.238933-97.324373-0.006827-194.648747-0.068267-291.969707-0.238933-23.21408-0.037547-32.99328 9.728-33.727147 32.426667-1.553067 47.950507-3.498667 95.914667-6.539947 143.786667C178.111147 515.14368 188.187307 525.479253 214.500693 525.298347z" p-id="4715" fill="#aaa"></path><path d="M132.88448 577.993387c0 20.81792 16.878933 37.69344 37.69344 37.69344l338.384213 0 6.07232 0 338.387627 0c20.81792 0 37.69344-16.87552 37.69344-37.69344s-16.87552-37.69344-37.69344-37.69344L515.037867 540.299947l-6.07232 0L170.57792 540.299947C149.76 540.299947 132.88448 557.175467 132.88448 577.993387z" p-id="4716" fill="#aaa"></path></svg>